# xmcd CD database file
#
# Track frame offsets:
#	150
#	12276
#	26294
#	38453
#	50640
#	63931
#	81928
#	101653
#	116708
#	129746
#	139486
#	151215
#	170867
#	187111
#
# Disc length: 2596 seconds
#
# Revision: 0
# Processed by: cddbd v1.5.2PL0 Copyright (c) Steve Scherf et al.
# Submitted via: CDex 1.70beta2
#
DISCID=c10a220e
DTITLE=The Radio Kings - OVCMHoF -  - The Radio Kings
DYEAR=1900
DGENRE=Country
TTITLE0=Seven Come Eleven
TTITLE1=Southern Moon
TTITLE2=Fat and Happy
TTITLE3=Ocean of Tears
TTITLE4=Don't
TTITLE5=Lullably of Leaves
TTITLE6=Good Woman's Love
TTITLE7=Sugar Moon
TTITLE8=Blue Plate Special
TTITLE9=Tell Me More
TTITLE10=What Can It Be
TTITLE11=Swingin'
TTITLE12=Got You On My Mind
TTITLE13=Seven Come Eleven (Reprise)
EXTD=
EXTT0=
EXTT1=
EXTT2=
EXTT3=
EXTT4=
EXTT5=
EXTT6=
EXTT7=
EXTT8=
EXTT9=
EXTT10=
EXTT11=
EXTT12=
EXTT13=
PLAYORDER=
